<svg xmlns="http://www.w3.org/2000/svg" xmlns:xlink="http://www.w3.org/1999/xlink" width="1378" height="522" xmlns:v="https://vecta.io/nano"><style><![CDATA[.B{fill-rule:nonzero}.C{stroke:#595959}.D{stroke-width:.5}.E{stroke-dasharray:4,3}]]></style><g fill="none" fill-rule="evenodd"><g fill="#fff"><path d="M.529.455H1377.47v521H.529z"/><g class="B C D"><path d="M548.33 26.168h803.828v435.407H548.33V26.168z" class="E"/><path d="M531.583 42.914h803.828v435.407H531.583z"/><path d="M514.837 59.661h803.828v435.407H514.837z"/></g></g><g class="D B C"><path fill="#e4f2f1" d="M916.751 93.154h368.421v351.675H916.751z"/><path fill="#fff" d="M966.99 126.646h284.689v284.689H966.99z"/></g><g fill="#f4f4f4" class="B C D"><path d="M1017.229 324.254h184.211v36.842h-184.211v-36.842z" stroke-dasharray="3,2"/><path d="M1017.229 289.087h184.211v35.167h-184.211z"/><path d="M1017.229 258.943h184.211v30.144h-184.211z"/><path d="M1017.229 213.728h184.211v45.215h-184.211z"/><path d="M1017.229 176.886h184.211v36.842h-184.211z"/></g><path d="M586.679 251.742a25.65 25.65 0 0 0 13.397 9.043c14.234 4.689 28.971 7.536 43.876 8.373 29.139 2.847 58.445 2.679 87.584-.67 12.392-1.172 24.617-3.684 36.507-7.703 5.359-1.507 10.048-4.522 13.397-9.043v38.349c.335 3.684-1.675 7.201-5.191 8.541-7.368 3.349-14.904 5.861-22.608 7.871-26.962 5.526-54.593 7.536-82.057 6.196-20.263-.167-40.359-2.512-59.952-6.866a108.95 108.95 0 0 1-17.584-6.029c-4.522-1.675-7.536-6.029-7.201-10.885.167-12.057-.167-24.115-.167-37.177h0zm95.789 15.072c-24.952.335-49.737-2.344-74.187-7.871-5.694-1.507-11.22-3.517-16.579-6.364-7.368-4.019-7.201-9.378 0-13.565 8.876-4.689 18.589-7.703 28.636-9.043 29.809-4.856 60.287-6.364 90.431-4.187 16.914.67 33.828 3.182 50.239 7.368a63.89 63.89 0 0 1 15.574 6.531c6.196 3.684 5.861 8.206 0 12.225-7.871 4.522-16.579 7.536-25.622 8.876-22.44 4.187-45.55 6.196-68.493 6.029h0z" fill="#d3d3d3" class="B"/><path fill="#fff" d="M29.191 59.661h401.914v435.407H29.191z" class="B C D"/><g fill="#000" class="B"><path d="M117.612 121.79l-2.847 1.842c-1.34-2.01-3.517-3.014-5.861-3.014-4.187.167-7.536 3.684-7.536 7.871.167 4.019 3.349 7.368 7.536 7.536 2.344 0 4.522-1.172 5.861-3.014l2.847 2.01c-2.01 2.847-5.191 4.354-8.708 4.187-6.029 0-11.053-4.856-11.053-10.885s4.856-11.053 10.885-11.053h.167c3.517 0 6.866 1.675 8.708 4.522h0zm18.254 9.88c.077 2.052-.681 4.048-2.101 5.531a7.59 7.59 0 0 1-5.435 2.34c-2.052.077-4.048-.681-5.531-2.101a7.59 7.59 0 0 1-2.34-5.435c0-4.187 3.349-7.871 7.536-7.871h.167c4.187-.167 7.703 3.014 7.703 7.201v.335h0zm-12.225 0c0 2.512 2.177 4.522 4.689 4.354s4.522-2.177 4.354-4.689c0-2.512-2.01-4.522-4.522-4.354-2.512 0-4.522 1.842-4.522 4.354v.335h0zm29.641-1.842v9.043H150.1v-8.038c0-2.344-1.172-3.852-3.349-3.852a3.45 3.45 0 0 0-3.684 3.349v.335 8.038h-3.182v-14.402h3.182v1.842c1.005-1.507 2.679-2.177 4.354-2.177 3.014-.167 5.694 2.177 5.861 5.191v.67h0zm14.402-2.512h-5.526v6.364c0 2.01 1.005 2.679 2.344 2.679 1.005 0 2.01-.335 2.847-1.005l1.172 2.512c-1.321.821-2.808 1.336-4.354 1.507-3.349 0-5.191-1.842-5.191-5.526v-6.364h-2.847v-2.847h2.847v-4.689h3.182v4.354h5.526v3.014h0zm13.732-2.847l-.837 3.182c-.67-.335-1.507-.502-2.344-.502-1.842 0-3.517 1.507-3.517 3.349V131v7.871h-3.182v-14.402h3.182v1.675c1.005-1.34 2.512-2.177 4.187-2.01.837-.167 1.675 0 2.512.335h0zm17.081 7.201a7.71 7.71 0 0 1-7.536 7.871c-4.255.093-7.778-3.281-7.871-7.536-.077-2.052.681-4.048 2.101-5.531a7.59 7.59 0 0 1 5.435-2.34h.167c4.187-.167 7.703 3.014 7.703 7.201v.335zm-12.392 0c0 2.512 2.177 4.522 4.689 4.354 2.512 0 4.522-2.177 4.354-4.689 0-2.512-2.01-4.522-4.522-4.354-2.512 0-4.522 1.842-4.522 4.354v.335h0zm19.426 7.201h-3.182v-21.77h3.182v21.77zm8.038 0h-3.182v-21.77h3.182v21.77zm17.919-7.201v1.172H220.77c.167 2.177 2.177 3.852 4.354 3.684 1.507 0 3.014-.502 4.187-1.507l1.507 2.177c-1.675 1.34-3.852 2.177-5.861 2.01-3.852.167-7.201-2.847-7.368-6.866v-.837c-.335-3.852 2.512-7.201 6.531-7.536h.67c4.019 0 6.699 3.182 6.699 7.703zm-10.718-1.34h7.536c0-2.01-1.675-3.517-3.684-3.517s-3.684 1.507-3.852 3.517zm24.45-5.861l-.837 3.182c-.67-.335-1.507-.502-2.344-.502-1.842 0-3.517 1.507-3.517 3.349V131v7.871h-3.182v-14.402h3.182v1.675c1.005-1.34 2.512-2.177 4.187-2.01.837-.167 1.675 0 2.512.335h0zm-141.34 40.024c-3.852 2.01-5.191 6.699-3.182 10.383a7.3 7.3 0 0 0 3.182 3.182l-.67 2.01a9.63 9.63 0 0 1-4.856-12.727c.98-2.152 2.705-3.877 4.856-4.856l.67 2.01h0zm5.359 6.866v5.526h-2.344v-14.067h5.526c3.182 0 5.024 1.675 5.024 4.187 0 2.679-1.675 4.187-5.024 4.187h-3.182v.167zm0-6.364v4.187h3.182c1.842 0 2.679-.67 2.679-2.177s-.837-2.177-2.679-2.177l-3.182.167zm17.584 2.344l-.502 2.01c-.502-.167-1.005-.335-1.675-.335-1.34 0-2.344 1.005-2.344 2.344v.335 5.359h-2.177v-9.545h2.01v1.005c.67-.837 1.675-1.34 2.847-1.34.837-.167 1.34 0 1.842.167z"/><use xlink:href="#B"/><path d="M146.416 176.886h-2.512l-3.852-9.545h2.344l2.847 7.368 2.847-7.368h2.177z"/><use xlink:href="#C"/><use xlink:href="#D"/><use xlink:href="#C" x="16.244"/><use xlink:href="#B" x="45.55"/><use xlink:href="#E"/><path d="M202.349 163.991a1.5 1.5 0 0 1-1.507 1.507c-.837 0-1.507-.67-1.507-1.34 0-.837.67-1.507 1.34-1.507.837-.167 1.507.502 1.675 1.34zm-.502 12.895h-2.177v-9.545h2.177v9.545z"/><use xlink:href="#E" x="18.253"/><use xlink:href="#F"/><path d="M233.162 174.206l-1.172 5.526h-1.842l.502-5.526h2.512zM251.416 166c-1.172-.837-2.512-1.172-4.019-1.172-1.842 0-3.182.837-3.182 2.177 0 1.172 1.172 1.675 2.847 1.842l1.005.167c2.344.335 4.522 1.34 4.522 3.852 0 2.847-2.512 4.354-5.694 4.354-2.01 0-4.019-.67-5.694-1.842l1.172-1.842c1.172 1.005 2.847 1.507 4.354 1.507 1.842 0 3.349-.837 3.349-2.01s-1.172-1.675-3.182-1.842l-1.172-.167c-2.01-.335-4.187-1.34-4.187-3.852 0-2.847 2.512-4.354 5.526-4.354a8.86 8.86 0 0 1 5.024 1.507l-.67 1.675h0zm12.56 2.679l-1.34 1.507c-.67-.67-1.507-1.005-2.344-1.005-1.675.167-3.014 1.675-2.847 3.349.167 1.507 1.34 2.679 2.847 2.847.837 0 1.675-.335 2.344-1.005l1.34 1.507c-.837 1.005-2.177 1.507-3.517 1.507a4.93 4.93 0 0 1-5.024-5.024 4.93 4.93 0 0 1 5.024-5.024c1.34-.335 2.679.335 3.517 1.34h0zm4.856-.167a3.08 3.08 0 0 1 3.014-1.34c2.01-.167 3.852 1.507 3.852 3.517v.335 6.029h-2.177v-5.359c0-1.675-.837-2.512-2.177-2.512s-2.512 1.005-2.512 2.344v.335 5.359h-2.177v-14.402h2.177v5.694h0zm19.091 3.684v.837h-7.033c.167 1.507 1.34 2.512 2.847 2.512 1.005 0 2.01-.335 2.847-1.005l1.005 1.507c-1.172 1.005-2.512 1.34-4.019 1.34a4.59 4.59 0 0 1-4.856-4.522v-.502c-.167-2.512 1.675-4.856 4.354-5.024h.502c2.512 0 4.522 2.01 4.522 4.689-.167-.167-.167 0-.167.167h0zm-7.201-.837h5.024c0-1.34-1.172-2.344-2.512-2.344-1.34-.167-2.512 1.005-2.512 2.344h0zm17.249-2.847v-6.029h2.177v14.402h-2.177v-1.172a3.08 3.08 0 0 1-3.014 1.34c-2.847-.167-5.024-2.512-4.856-5.359.167-2.679 2.177-4.689 4.856-4.856 1.172.167 2.344.67 3.014 1.675zm-5.694 3.684c.167 1.675 1.507 2.847 3.014 2.679 1.675-.167 2.847-1.507 2.679-3.014s-1.34-2.679-2.847-2.679-2.847 1.34-2.847 2.847v.167h0z"/><use xlink:href="#G"/><path d="M318.234 176.886h-2.177v-14.402h2.177z"/><use xlink:href="#C" x="169.306"/><use xlink:href="#E" x="140.502"/><use xlink:href="#F" x="122.248" y="0.001"/><use xlink:href="#H"/><path d="M602.923 135.522h-3.014l-11.722-15.239v15.239h-3.349v-21.1h3.014l11.722 15.239v-15.239h3.349v21.1zm19.928-7.201a7.71 7.71 0 0 1-7.536 7.871c-4.255.093-7.778-3.281-7.871-7.536-.077-2.052.681-4.048 2.101-5.531a7.59 7.59 0 0 1 5.435-2.34h.167c4.187-.167 7.703 3.014 7.703 7.201v.335h0zm-12.392 0c0 2.512 2.177 4.522 4.689 4.354 2.512 0 4.522-2.177 4.354-4.689 0-2.512-2.01-4.522-4.522-4.354-2.512 0-4.522 1.842-4.522 4.354v.335h0 0zm26.962-5.526v-9.043h3.182v21.77h-3.182v-1.675c-1.005 1.34-2.847 2.177-4.522 2.177-4.187-.167-7.368-3.852-7.201-8.038a7.62 7.62 0 0 1 7.201-7.201c1.675-.167 3.349.67 4.522 2.01h0zm-8.541 5.526c.167 2.344 2.177 4.187 4.689 4.019s4.187-2.177 4.019-4.689c-.167-2.344-2.01-4.019-4.354-4.019s-4.354 1.842-4.354 4.354v.335h0zm29.641 0v1.172h-10.718c.167 2.177 2.177 3.852 4.354 3.684 1.507 0 3.014-.502 4.187-1.507l1.507 2.177c-1.675 1.34-3.852 2.177-5.861 2.01-3.852.167-7.201-2.847-7.368-6.866v-.837c-.335-3.852 2.512-7.201 6.531-7.536h.67c3.852.167 6.699 3.182 6.699 7.703zm-10.718-1.34h7.536c0-2.01-1.675-3.517-3.684-3.517-2.177 0-3.852 1.507-3.852 3.517zm31.483-12.56c6.531 0 10.885 4.187 10.885 10.55s-4.354 10.55-10.885 10.55h-8.373v-21.1h8.373zm-5.024 3.182v14.737h5.024c4.019 0 7.368-3.182 7.368-7.201s-3.182-7.368-7.201-7.368h-.167-5.024v-.167zm29.976 3.517l-.67 3.182c-.67-.335-1.507-.502-2.344-.502-1.842 0-3.517 1.507-3.517 3.349v.502 7.871h-3.182V121.12h3.182v1.675c1.005-1.34 2.512-2.177 4.187-2.01.67-.167 1.507 0 2.344.335h0zm6.866-5.024a2.22 2.22 0 0 1-2.177 2.177 2.22 2.22 0 0 1-2.177-2.177v-.167a2.22 2.22 0 0 1 2.177-2.177c1.172.167 2.177 1.005 2.177 2.344h0zm-.502 19.426h-3.182V121.12h3.182v14.402h0zm12.225 0h-3.684l-5.861-14.402h3.517l4.187 11.22 4.187-11.22h3.349l-5.694 14.402zm21.435-7.201v1.172h-10.718c.167 2.177 2.177 3.852 4.354 3.684 1.507 0 3.014-.502 4.187-1.507l1.507 2.177c-1.675 1.34-3.852 2.177-5.861 2.01-3.852.167-7.201-2.847-7.368-6.866v-.837c-.335-3.852 2.512-7.201 6.531-7.536h.67c4.019.167 6.699 3.182 6.699 7.703zm-10.718-1.34h7.536c0-2.01-1.675-3.517-3.684-3.517s-3.684 1.507-3.852 3.517zm24.45-5.861l-.837 3.182c-.67-.335-1.507-.502-2.344-.502-1.842 0-3.517 1.507-3.517 3.349v.502 7.871h-3.182V121.12h3.182v1.675c1.005-1.34 2.512-2.177 4.187-2.01.837-.167 1.675 0 2.512.335h0zm-168.468 40.024c-3.852 2.01-5.191 6.699-3.182 10.383a7.3 7.3 0 0 0 3.182 3.182l-.67 2.01A9.63 9.63 0 0 1 584 163.99c.98-2.152 2.705-3.877 4.856-4.856l.67 2.01h0zm8.708-1.507c3.852-.167 7.201 2.847 7.368 6.699s-2.847 7.201-6.699 7.368h-.502-5.526v-14.067h5.359 0zm-3.349 2.177v9.713h3.349a4.86 4.86 0 0 0 4.856-4.856 4.86 4.86 0 0 0-4.856-4.856h-3.349 0zm16.244-1.172a1.5 1.5 0 0 1-1.507 1.507c-.837 0-1.507-.67-1.507-1.34 0-.837.67-1.507 1.34-1.507 1.005-.167 1.675.502 1.675 1.34h0zm-.335 13.062h-2.177v-9.545h2.177v9.545z"/><use xlink:href="#D" x="456.172" y="-3.183"/><path d="M632.899 165.331l-1.34 1.507c-.67-.67-1.507-1.005-2.344-1.005-1.675.167-3.014 1.675-2.847 3.349.167 1.507 1.34 2.679 2.847 2.847.837 0 1.675-.335 2.344-1.005l1.34 1.507c-.837 1.005-2.177 1.507-3.517 1.507a5.04 5.04 0 0 1-5.024-5.024 5.16 5.16 0 0 1 5.024-5.024c1.34-.335 2.679.335 3.517 1.34h0z"/><use xlink:href="#B" x="506.411" y="-3.35"/><path d="M652.995 173.704h-2.512l-3.852-9.545h2.344l2.847 7.368 2.847-7.368h2.177l-3.852 9.545h0zm14.569-4.856v.837h-7.033c.167 1.507 1.34 2.512 2.847 2.512 1.005 0 2.01-.335 2.847-1.005l1.005 1.507c-1.172 1.005-2.512 1.34-4.019 1.34a4.59 4.59 0 0 1-4.856-4.522v-.502c-.167-2.512 1.675-4.856 4.354-5.024h.502c2.512 0 4.522 2.01 4.522 4.689-.167-.167-.167 0-.167.167h0zm-7.201-.837h5.024c0-1.34-1.172-2.344-2.512-2.344s-2.344 1.005-2.512 2.344zm16.579-4.019l-.502 2.01c-.502-.167-1.005-.335-1.675-.335-1.34 0-2.344 1.005-2.344 2.344v.335 5.359h-1.842v-9.545h2.01v1.005c.67-.837 1.675-1.34 2.847-1.34.502 0 1.005 0 1.507.167zm3.349 6.866l-1.172 5.526h-1.842l.502-5.526h2.512 0zm18.589-3.182h-7.368v6.029h-2.344v-14.067h10.048v2.177h-7.703v3.684h7.368v2.177h0z"/><use xlink:href="#B" x="573.229" y="-3.35"/><path d="M721.32 163.991l-.502 2.01c-.502-.167-1.005-.335-1.675-.335-1.34 0-2.344 1.005-2.344 2.344v.335 5.359h-2.177v-9.545h2.01v1.005c.67-.837 1.675-1.34 2.847-1.34.837 0 1.34 0 1.842.167zm18.421 3.684v6.029h-2.177v-5.359c0-1.675-.837-2.512-2.177-2.512s-2.512 1.005-2.512 2.344v.335 5.359h-2.177v-5.359c0-1.675-.837-2.512-2.177-2.512s-2.512 1.005-2.512 2.344v.335 5.359h-2.177v-9.545h2.01v1.172c.67-1.005 1.842-1.507 3.014-1.507 1.34 0 2.512.67 3.349 1.675.837-1.172 2.177-1.842 3.517-1.675 2.01-.167 3.852 1.507 3.852 3.517.167-.335.167-.167.167 0zm12.727 6.029h-2.177v-1.172a3.08 3.08 0 0 1-3.014 1.34c-2.847-.167-5.024-2.512-4.856-5.359.167-2.679 2.177-4.689 4.856-4.856 1.172 0 2.344.502 3.014 1.34v-1.172h2.177v9.88h0zm-7.703-4.856c.167 1.675 1.507 2.847 3.014 2.679 1.675-.167 2.847-1.507 2.679-3.014s-1.34-2.679-2.847-2.679a2.94 2.94 0 0 0-2.847 2.847v.167h0zM762.684 166H759v4.187c0 1.34.67 1.842 1.507 1.842.67 0 1.34-.335 2.01-.67l.837 1.675c-.837.67-1.842 1.005-3.014 1.005-2.177 0-3.517-1.172-3.517-3.684v-4.187h-1.842v-1.842h1.842v-2.847H759v2.847h3.684V166h0zm5.861 4.857l-1.172 5.526h-1.842l.502-5.526h2.512zm-169.641 28.971h-2.344v-11.555l-4.187 10.215h-2.344l-4.187-10.048v11.388h-2.344v-14.067h3.517l4.019 10.048 4.019-10.048h3.517v14.067h.335zm13.565-4.856c0 2.847-2.177 5.191-5.024 5.359-2.847 0-5.191-2.177-5.359-5.024 0-2.847 2.177-5.191 5.024-5.359h.167c2.679-.167 5.024 2.01 5.191 4.856v.167h0zm-8.206 0c0 1.665 1.35 3.014 3.014 3.014s3.014-1.35 3.014-3.014a3 3 0 0 0-3.014-3.014c-1.675 0-3.014 1.172-3.014 2.847v.167h0 0z"/><use xlink:href="#G" x="311.651" y="22.775"/><use xlink:href="#I"/><use xlink:href="#J"/><path d="M665.052 199.828l-1.675-1.675c-1.005 1.172-2.679 2.01-4.187 1.842-2.679 0-4.187-1.34-4.187-3.684.167-1.675 1.172-3.014 2.512-3.852a4.37 4.37 0 0 1-1.842-3.517c0-2.01 1.675-3.517 3.684-3.349h.167c1.842-.167 3.517 1.005 3.852 3.014v.335c0 1.507-1.34 2.679-2.679 3.684l2.679 2.512 2.01-3.014 1.675 1.005-1.842 2.847c-.167.167-.167.335-.335.67l3.517 3.349-3.349-.167h0zm-3.182-3.182l-3.014-3.014c-.837.502-1.507 1.507-1.675 2.512a1.86 1.86 0 0 0 1.842 1.842h.167c1.172 0 2.01-.502 2.679-1.34zm-2.679-5.526c1.005-.67 1.842-1.507 1.842-2.177 0-.837-.67-1.34-1.675-1.34-.837-.167-1.507.502-1.675 1.172v.335c0 .502.335 1.005 1.507 2.01h0zm32.488 8.708h-2.344v-11.555l-4.187 10.215h-2.344l-4.187-10.048v11.388h-2.344v-14.067h3.517l4.019 10.048 4.019-10.048h3.517v14.067h.335z"/><use xlink:href="#B" x="566.531" y="22.775"/><use xlink:href="#I" x="80.382" y="0.001"/><path d="M723.33 186.766a1.5 1.5 0 0 1-1.507 1.507c-.837 0-1.507-.67-1.507-1.34 0-.837.67-1.507 1.34-1.507 1.005-.167 1.507.502 1.675 1.34h0zm-.502 13.062h-2.177v-9.545h2.177v9.545h0z"/><use xlink:href="#J" x="86.244"/><use xlink:href="#B" x="606.89" y="22.775"/><path d="M755.148 190.115l-.502 2.01c-.502-.167-1.005-.335-1.675-.335-1.34 0-2.344 1.005-2.344 2.344v.335 5.359h-2.177v-9.545h2.01v1.005c.67-.837 1.675-1.34 2.847-1.34.67 0 1.34 0 1.842.167h0z"/><use xlink:href="#H" x="404.426" y="22.775"/><path d="M667.732 285.235c3.182-.167 6.029 2.344 6.029 5.694.167 3.182-2.344 6.029-5.694 6.029h-.502-4.689v-11.722h4.856zm-2.847 1.675v8.206h2.847c2.177 0 4.019-1.842 4.187-4.019 0-2.177-1.842-4.019-4.019-4.187h-3.014zm16.914 2.01l-.502 1.675c-.335-.167-.837-.335-1.34-.335-1.005 0-1.842.837-2.01 1.842v.335 4.354h-1.675v-8.038h1.675v.837a2.93 2.93 0 0 1 2.344-1.172c.67.167 1.172.335 1.507.502h0zm4.187-2.847c0 .647-.525 1.172-1.172 1.172s-1.172-.525-1.172-1.172a1.17 1.17 0 1 1 2.344 0zm-.335 10.885h-1.675v-8.038h1.842l-.167 8.038zm7.201 0h-2.177l-3.182-8.038h1.842l2.344 6.196 2.344-6.196h1.842l-3.014 8.038h0zm12.225-4.019v.67h-6.029c.167 1.172 1.172 2.177 2.344 2.01.837 0 1.675-.335 2.344-.837l.837 1.172c-1.005.837-2.177 1.172-3.349 1.172-2.177.167-4.019-1.675-4.187-3.852v-.502c-.167-2.177 1.507-4.019 3.517-4.187h.335a3.79 3.79 0 0 1 2.744 1.108c.727.726 1.126 1.717 1.108 2.744.335.167.335.335.335.502h0zm-6.029-.67h4.187c0-1.172-1.005-2.01-2.01-2.01-1.172 0-2.177.837-2.177 2.01h0zm236.124 8.206c-.167-3.182 2.344-6.029 5.694-6.029s6.029 2.344 6.029 5.694v.502 4.689h-11.722v-4.856h0zm1.842 2.679h8.206v-2.847c0-2.177-1.842-4.019-4.019-4.187s-4.019 1.842-4.187 4.019v3.014h0zm-.837-13.565c.647 0 1.172.525 1.172 1.172s-.525 1.172-1.172 1.172a1.14 1.14 0 0 1-1.172-1.172c-.167-.502.335-1.172 1.172-1.172h0zm10.718.335v1.842h-8.038v-1.842h8.038zm-8.038-8.373l1.675.335c-.167.335-.335.837-.335 1.34 0 1.005.837 1.842 1.842 2.01h.335 4.354v1.675h-8.038v-1.675h.837a2.93 2.93 0 0 1-1.172-2.344c.335-.502.335-1.005.502-1.34h0zm4.019-9.043h.67v5.861c1.172-.167 2.177-1.172 2.01-2.344 0-.837-.335-1.675-.837-2.344l1.172-.837c.837 1.005 1.172 2.177 1.172 3.349.167 2.177-1.675 4.019-3.852 4.187h-.502c-2.177.167-4.019-1.507-4.187-3.517v-.335a3.79 3.79 0 0 1 1.108-2.744c.726-.727 1.717-1.126 2.744-1.108.335-.167.335-.167.502-.167h0zm-.67 6.029v-4.187c-1.172 0-2.01 1.005-2.01 2.01 0 1.172.837 2.177 2.01 2.177zm-2.177-15.072l1.172 1.172c-.502.502-.837 1.172-.837 2.01.167 1.34 1.34 2.512 2.847 2.344 1.34-.167 2.177-1.172 2.344-2.344 0-.67-.335-1.507-.837-2.01l1.172-1.005c.837.837 1.34 1.842 1.34 3.014 0 2.344-1.842 4.187-4.187 4.187s-4.187-1.842-4.187-4.187c-.167-1.34.335-2.512 1.172-3.182h0zm.502-7.871v3.014h3.517c1.005 0 1.507-.502 1.507-1.34a3.23 3.23 0 0 0-.502-1.675l1.34-.67c.502.67.837 1.507.837 2.512 0 1.842-1.005 2.847-3.182 2.847h-3.517v1.675h-1.675v-1.675h-2.512v-1.842h2.512v-2.847h1.675 0zm1.842-4.522h4.689v1.842H935.34v-4.522c0-2.679 1.34-4.187 3.517-4.187s3.517 1.507 3.517 4.187v2.679zm-5.359 0h3.517v-2.679c0-1.507-.502-2.177-1.842-2.177s-1.842.67-1.842 2.177v2.679h.167zm9.88-14.904v2.344l-11.722 4.522v-2.01l9.88-3.684-9.88-3.684v-2.01l11.722 4.522h0zm44.211 72.679l6.029-4.187v2.344l-4.522 3.014 4.522 3.014v2.177l-6.029-4.187-5.694 4.019v-2.344l4.354-2.847-4.354-2.847v-2.177l5.694 4.019h0zm1.005-14.402v6.029h5.024v1.842h-11.722v-8.373h1.842v6.531h3.182v-6.029h1.675zm-4.019-11.053c-.67 1.005-1.005 2.177-1.005 3.349 0 1.507.67 2.679 1.675 2.679s1.34-.837 1.507-2.512l.167-.837c.335-1.842 1.005-3.852 3.182-3.852 2.344 0 3.684 2.177 3.684 4.689 0 1.675-.502 3.349-1.507 4.689l-1.507-1.005c.837-1.005 1.34-2.344 1.34-3.684 0-1.507-.67-2.679-1.675-2.679s-1.34 1.005-1.507 2.679l-.167.837c-.167 1.675-1.005 3.517-3.182 3.517-2.344 0-3.684-2.01-3.684-4.689a7.33 7.33 0 0 1 1.34-4.187l1.34 1.005h0zm3.181-20.262c1.34 0 2.847.502 3.852 1.34l2.01-1.507v2.177l-.837.502c.67 1.005 1.005 2.177 1.005 3.517 0 3.349-2.847 6.029-6.196 6.029s-6.029-2.847-6.029-6.196c.167-3.182 2.847-5.861 6.196-5.861h0 0zm0 10.215c2.177.167 4.187-1.507 4.187-3.852v-.335c0-.837-.167-1.675-.67-2.344l-3.182 2.344v-2.344l1.842-1.34c-.67-.335-1.507-.502-2.344-.502-2.344 0-4.187 1.675-4.187 4.019s1.675 4.187 4.019 4.187c.167.167.335.167.335.167h0zm2.512-20.263c2.01 0 3.684 1.842 3.684 3.852s-1.675 3.517-3.684 3.684h-4.689v-1.842h4.522c1.507 0 2.177-.837 2.177-2.01s-.502-2.01-2.177-2.01h-4.522v-1.842h4.689v.167zm-.67-11.053c2.344 0 4.354 1.842 4.354 4.187s-1.842 4.354-4.187 4.354-4.354-1.842-4.354-4.187v-.167c0-2.344 1.675-4.187 4.019-4.354 0 .167.167.167.167.167zm0 6.866a2.58 2.58 0 0 0 2.512-2.512 2.58 2.58 0 0 0-2.512-2.512 2.58 2.58 0 0 0-2.512 2.512c0 1.34 1.005 2.512 2.344 2.512h.167 0zm-2.344-14.737v3.014h3.517c1.005 0 1.507-.502 1.507-1.34a3.23 3.23 0 0 0-.502-1.675l1.34-.67c.502.67.837 1.507.837 2.512 0 1.842-1.005 2.847-3.182 2.847h-3.517v1.675h-1.675v-1.675h-2.512v-1.842h2.512v-3.014h1.675v.167zm6.364-10.048v1.675h-1.005c.837.67 1.172 1.507 1.172 2.512-.167 2.344-2.177 4.187-4.522 4.019a4.32 4.32 0 0 1-4.019-4.019c0-1.005.335-1.842 1.172-2.512h-1.005v-1.675h8.206 0zm-4.019 6.364c1.34 0 2.344-1.172 2.344-2.512s-1.172-2.344-2.512-2.344-2.344 1.172-2.344 2.344c0 1.34 1.005 2.344 2.344 2.344 0 .335.167.335.167.167zm76.029-34.665v4.689h-1.842v-11.722h4.522c2.679 0 4.187 1.34 4.187 3.517s-1.507 3.517-4.187 3.517h-2.679zm0-5.359v3.517h2.679c1.507 0 2.177-.502 2.177-1.842s-.67-1.842-2.177-1.842h-2.679v.167zm14.904 10.048h-2.345l-4.522-11.722h2.01l3.684 9.88 3.684-9.88h2.01l-4.522 11.722h0zm15.909-5.861c0 3.852-2.177 6.029-5.024 6.029-2.679 0-5.024-2.344-5.024-6.029 0-3.852 2.177-6.029 5.024-6.029 2.847-.167 5.024 2.177 5.024 6.029zm-7.871 0c0 2.847 1.34 4.354 3.014 4.354s3.014-1.507 3.014-4.354-1.34-4.354-3.014-4.354-3.014 1.507-3.014 4.354zm20.598-4.689c-3.182 1.675-4.354 5.526-2.679 8.708.67 1.172 1.507 2.177 2.679 2.679l-.67 1.675c-4.019-1.842-5.861-6.531-4.019-10.55a7.84 7.84 0 0 1 4.019-4.019l.67 1.507h0zm7.871 6.531h1.842v1.675h-1.842v2.344h-1.842v-2.344h-5.191v-1.34l4.354-8.038h2.01l-4.187 7.703h3.014v-3.182h1.842v3.182zm12.392-6.029h-3.852v9.88h-1.842v-9.88h-3.852v-1.842h9.545v1.842h0z"/><use xlink:href="#K"/><path d="M1146.177 201.335c3.182-1.675 4.354-5.526 2.679-8.708-.67-1.172-1.507-2.177-2.679-2.679l.67-1.675c4.019 1.842 5.861 6.531 4.019 10.55-.837 1.842-2.177 3.182-4.019 4.019l-.67-1.507h0z"/><use xlink:href="#L"/><path d="M1086.392 237.34h-2.344l-4.522-11.722h2.01l3.684 9.88 3.684-9.88h2.01l-4.522 11.722h0zm10.383 0h-1.842v-9.211l-3.014 1.34v-1.842l4.856-2.01v11.722h0z"/><use xlink:href="#M"/><path d="M1114.861 229.804c.335 0 .67-.167.837-.167 2.177 0 3.852 1.675 4.019 3.852-.167 2.344-2.345 4.019-4.689 3.852a4.29 4.29 0 0 1-3.852-3.852c0-1.005.335-2.177 1.005-3.014l3.349-5.024h2.177l-2.847 4.354zm-1.675 3.852c-.167 1.34.837 2.512 2.177 2.512 1.34.167 2.512-.837 2.512-2.177.167-1.34-.837-2.512-2.177-2.512h-.167c-1.34-.167-2.345.67-2.345 2.177 0-.167 0-.167 0 0zm17.249-6.364h-3.852v9.88h-1.842v-9.88h-3.684v-1.842h9.545l-.167 1.842h0zm6.866-1.675c2.512 0 4.354.837 4.354 3.182 0 1.172-.67 2.177-1.842 2.512a2.87 2.87 0 0 1 2.01 2.679c0 2.344-1.675 3.349-4.354 3.349h-4.689v-11.722h4.522 0zm-2.679 1.675v3.182h2.679c1.34 0 2.512-.167 2.512-1.675 0-1.34-1.172-1.507-2.512-1.507h-2.679zm0 5.024v3.182h2.847c1.507 0 2.512-.335 2.512-1.675s-1.005-1.675-2.512-1.675h-2.847v.167z"/><use xlink:href="#N"/><use xlink:href="#L" x="0.167" y="41.028"/><path d="M1086.559 278.369h-2.345l-4.522-11.722h2.01l3.684 9.88 3.684-9.88h2.01l-4.522 11.722h0zm5.694-10.048c.837-1.172 2.177-2.01 3.684-2.01 2.01-.167 3.684 1.34 3.852 3.349v.502c0 1.34-.67 2.512-1.507 3.349l-3.014 3.182h4.856v1.675h-7.536v-1.507l4.187-4.522c.67-.502 1.005-1.34 1.005-2.177 0-1.005-.67-2.01-1.842-2.01h-.167a2.67 2.67 0 0 0-2.344 1.34l-1.172-1.172h0z"/><use xlink:href="#M" x="2.512" y="41.028"/><path d="M1118.713 278.369h-1.842v-9.378l-3.014 1.34v-1.842l4.856-2.01v11.89h0zm11.722-10.048h-3.852v9.88h-1.842v-9.88h-3.852v-1.842h9.545v1.842h0zm6.699-1.675c2.512 0 4.354.837 4.354 3.182 0 1.172-.67 2.177-1.842 2.512a2.87 2.87 0 0 1 2.01 2.679c0 2.344-1.675 3.349-4.354 3.349h-4.856v-11.722h4.689zm-2.679 1.675v3.182h2.679c1.34 0 2.512-.167 2.512-1.675 0-1.34-1.172-1.507-2.512-1.507h-2.679zm0 5.024v3.182h2.847c1.507 0 2.512-.335 2.512-1.675s-1.005-1.675-2.512-1.675h-2.847v.167z"/><use xlink:href="#N" x="-0.167" y="41.029"/><use xlink:href="#L" x="-1.173" y="73.684"/><path d="M1085.22 311.024h-2.344l-4.522-11.722h2.01l3.684 9.88 3.684-9.88h2.01l-4.522 11.722h0zm13.397-8.708c0 1.172-.67 2.177-1.842 2.679a2.87 2.87 0 0 1 2.01 2.679c0 2.344-2.01 3.349-4.187 3.349-1.507 0-3.014-.502-4.019-1.675l1.172-1.172c.67.837 1.842 1.172 2.847 1.172 1.34 0 2.344-.502 2.344-1.842 0-1.172-1.172-1.842-2.512-1.842h-1.34v-1.675h1.34c1.34 0 2.344-.502 2.344-1.675s-1.005-1.675-2.177-1.675a2.67 2.67 0 0 0-2.344 1.34l-1.34-1.172c.837-1.172 2.344-2.01 3.852-1.842 2.344 0 3.852 1.34 3.852 3.349h0z"/><use xlink:href="#M" x="1.34" y="73.684"/><path d="M1113.019 300.977c.837-1.172 2.177-2.01 3.684-2.01 2.01-.167 3.684 1.34 3.852 3.349v.502c0 1.34-.67 2.512-1.507 3.349l-3.014 3.182h4.856v1.675h-7.536v-1.507l4.187-4.522c.67-.502 1.005-1.34 1.005-2.177 0-1.005-.67-2.01-1.842-2.01h-.167a2.67 2.67 0 0 0-2.344 1.34l-1.172-1.172h0zm18.756 0h-3.852v9.88h-1.842v-9.88h-3.852v-1.842h9.545v1.842z"/><use xlink:href="#K" x="-1.173" y="110.526"/><use xlink:href="#N" x="1.172" y="73.684"/><use xlink:href="#L" x="-1.675" y="110.526"/><path d="M1084.885 347.866h-2.344l-4.522-11.722h2.01l3.684 9.88 3.684-9.88h2.01z"/><use xlink:href="#O"/><use xlink:href="#M" x="1.005" y="110.526"/><use xlink:href="#O" x="22.608" y="-0.001"/><path d="M1132.11 337.819h-3.852v9.88h-1.842v-9.88h-3.852v-1.842h9.545v1.842h0zm6.699-1.675c2.512 0 4.354.837 4.354 3.182 0 1.172-.67 2.177-1.842 2.512a2.87 2.87 0 0 1 2.01 2.679c0 2.344-1.675 3.349-4.354 3.349h-4.856v-11.722h4.689zm-2.679 1.675V341h2.679c1.34 0 2.512-.167 2.512-1.675 0-1.34-1.172-1.507-2.512-1.507h-2.679zm0 5.024v3.182h2.847c1.507 0 2.512-.335 2.512-1.675s-1.005-1.675-2.512-1.675h-2.847v.167z"/><use xlink:href="#N" x="1.507" y="110.527"/></g><path d="M916.751 93.154L781.272 274.182l135.478 170.646" class="C D E"/></g><defs ><path id="B" d="M138.713 172.197c0 2.847-2.177 5.191-5.024 5.359-2.847 0-5.191-2.177-5.359-5.024 0-2.847 2.177-5.191 5.024-5.359h.167c2.679-.167 5.024 2.01 5.191 4.856v.167h0zm-8.206 0c0 1.665 1.35 3.014 3.014 3.014s3.014-1.35 3.014-3.014a3 3 0 0 0-3.014-3.014c-1.675 0-3.014 1.172-3.014 2.847v.167h0z"/><path id="C" d="M155.124 163.991a1.5 1.5 0 0 1-1.507 1.507c-.837 0-1.507-.67-1.507-1.34 0-.837.67-1.507 1.34-1.507 1.005-.167 1.675.502 1.675 1.34h0zm-.502 12.895h-2.177v-9.545h2.177v9.545z"/><path id="D" d="M164.837 169.685a6.27 6.27 0 0 0-3.014-.837c-1.172 0-1.842.502-1.842 1.172s.67.837 1.507 1.005l1.005.167c2.177.335 3.349 1.172 3.349 2.847 0 1.842-1.675 3.182-4.354 3.182-1.507 0-2.847-.335-4.187-1.172l1.005-1.507c.837.67 2.01 1.005 3.182 1.005 1.507 0 2.177-.502 2.177-1.172 0-.502-.502-.837-1.675-1.005l-1.005-.167c-2.177-.335-3.182-1.34-3.182-2.847 0-1.842 1.507-3.014 4.019-3.014a7.78 7.78 0 0 1 3.852 1.005l-.837 1.34h0z"/><path id="E" d="M196.153 170.857v6.029h-2.177v-5.359c0-1.675-.837-2.512-2.177-2.512s-2.512 1.005-2.512 2.344v.335 5.359h-2.177v-9.545h2.01v1.172c.67-1.005 1.842-1.507 3.014-1.507 2.01-.167 3.852 1.507 3.852 3.517.167 0 .167.167.167.167h0z"/><path id="F" d="M224.957 168.512v-1.172h2.177v8.876c.167 2.512-1.842 4.689-4.354 4.856h-.837c-1.34 0-2.847-.335-4.019-1.172l.837-1.842c1.005.67 2.177 1.005 3.182 1.005 1.507.167 2.847-.837 3.014-2.344v-.502-.837c-.837 1.005-2.01 1.507-3.182 1.34-2.679-.335-4.689-2.679-4.354-5.526.167-2.344 2.177-4.187 4.354-4.354 1.172.167 2.344.67 3.182 1.675h0zm-5.526 3.517c0 1.507 1.34 2.847 3.014 2.679s2.847-1.34 2.679-3.014c0-1.507-1.34-2.679-2.847-2.679s-2.847 1.172-2.847 2.679v.335h0 0z"/><path id="G" d="M312.54 172.866c0 2.512-2.177 4.354-4.522 4.354s-4.187-2.01-4.354-4.354v-5.526h2.177v5.359c0 1.842 1.005 2.512 2.344 2.512s2.344-.67 2.344-2.512v-5.359h2.177v5.526h-.167z"/><path id="H" d="M352.062 178.058c3.852-2.01 5.191-6.699 3.182-10.383a7.3 7.3 0 0 0-3.182-3.182l.67-2.01c4.856 2.177 7.033 7.871 4.856 12.727-.98 2.152-2.705 3.877-4.856 4.856l-.67-2.01h0z"/><path id="I" d="M636.751 193.799v6.029h-2.177v-5.359c0-1.675-.837-2.512-2.177-2.512s-2.512 1.005-2.512 2.344v.335 5.359h-2.177v-9.545h2.01v1.172c.67-1.005 1.842-1.507 3.014-1.507 2.01-.167 3.852 1.507 3.852 3.517.167-.167.167 0 .167.167h0z"/><path id="J" d="M646.798 192.125h-3.684v4.187c0 1.34.67 1.842 1.507 1.842.67 0 1.34-.335 2.01-.67l.837 1.675c-.837.67-1.842 1.005-3.014 1.005-2.177 0-3.517-1.172-3.517-3.684v-4.187h-1.842v-1.842h1.842v-2.847h2.177v2.847h3.684v1.675h0z"/><path id="K" d="M1139.646 188.776c2.512 0 4.354.837 4.354 3.182 0 1.172-.67 2.177-1.842 2.512a2.87 2.87 0 0 1 2.01 2.679c0 2.344-1.675 3.349-4.354 3.349h-4.856v-11.722h4.689zm-2.679 1.675v3.182h2.679c1.34 0 2.512-.167 2.512-1.675 0-1.34-1.172-1.507-2.512-1.507h-2.679zm0 5.024v3.182h2.847c1.507 0 2.512-.335 2.512-1.675s-1.005-1.675-2.512-1.675h-2.847v.167z"/><path id="L" d="M1071.488 232.651v4.689h-1.842v-11.722h4.522c2.679 0 4.187 1.34 4.187 3.517s-1.507 3.517-4.187 3.517h-2.679zm0-5.359v3.517h2.679c1.507 0 2.177-.502 2.177-1.842s-.67-1.842-2.177-1.842h-2.679v.167z"/><path id="M" d="M1110.004 226.79c-3.182 1.675-4.354 5.526-2.679 8.708.67 1.172 1.507 2.177 2.679 2.679l-.67 1.675c-4.019-1.842-5.861-6.531-4.019-10.55a7.84 7.84 0 0 1 4.019-4.019l.67 1.507h0z"/><path id="N" d="M1143.832 238.177c3.182-1.675 4.354-5.526 2.679-8.708-.67-1.172-1.507-2.177-2.679-2.679l.67-1.675c4.019 1.842 5.861 6.531 4.019 10.55a7.84 7.84 0 0 1-4.019 4.019l-.67-1.507h0z"/><path id="O" d="M1098.114 342.843v5.024h-1.842v-4.522c0-1.34-.67-2.177-1.842-2.177s-2.01.837-2.01 1.842v.167 4.522h-1.842v-8.038h1.675v1.005c.502-.837 1.507-1.172 2.512-1.172 1.675-.167 3.182 1.172 3.182 2.847.167.167.167.335.167.502h0z"/></defs></svg>